<?xml version="1.0" encoding="UTF-8" standalone="no"?>
<svg
   xmlns:dc="http://purl.org/dc/elements/1.1/"
   xmlns:cc="http://creativecommons.org/ns#"
   xmlns:rdf="http://www.w3.org/1999/02/22-rdf-syntax-ns#"
   xmlns:svg="http://www.w3.org/2000/svg"
   xmlns="http://www.w3.org/2000/svg"
   xmlns:sodipodi="http://sodipodi.sourceforge.net/DTD/sodipodi-0.dtd"
   xmlns:inkscape="http://www.inkscape.org/namespaces/inkscape"
   inkscape:version="1.0 (4035a4fb49, 2020-05-01)"
   sodipodi:docname="twitter.svg"
   version="1.1"
   height="15"
   width="15"
   viewBox="0 50 250 218.75001"
   data-name="Logo — FIXED"
   id="Logo_FIXED">
  <metadata
     id="metadata48">
    <rdf:RDF>
      <cc:Work
         rdf:about="">
        <dc:format>image/svg+xml</dc:format>
        <dc:type
           rdf:resource="http://purl.org/dc/dcmitype/StillImage" />
        <dc:title>Twitter_Logo_Blue</dc:title>
      </cc:Work>
    </rdf:RDF>
  </metadata>
  <sodipodi:namedview
     inkscape:current-layer="Logo_FIXED"
     inkscape:window-maximized="1"
     inkscape:window-y="-8"
     inkscape:window-x="-8"
     inkscape:cy="9.09416"
     inkscape:cx="2.8637959"
     inkscape:zoom="24.601423"
     fit-margin-bottom="0"
     fit-margin-right="0"
     fit-margin-left="0"
     fit-margin-top="0"
     showgrid="false"
     id="namedview46"
     inkscape:window-height="1017"
     inkscape:window-width="1920"
     inkscape:pageshadow="2"
     inkscape:pageopacity="0"
     guidetolerance="10"
     gridtolerance="10"
     objecttolerance="10"
     borderopacity="1"
     bordercolor="#666666"
     pagecolor="#ffffff" />
  <defs
     id="defs37">
    <style
       id="style35">.cls-1{fill:none;}.cls-2{fill:#1da1f2;}</style>
  </defs>
  <title
     id="title39">Twitter_Logo_Blue</title>
  <rect
     y="23.645063"
     x="3.3333339e-07"
     id="rect41"
     height="400"
     width="400"
     class="cls-1" />
  <path
     id="path43"
     d="m 78.619997,260.94398 c 94.340003,0 145.940003,-78.16 145.940003,-145.94001 0,-2.22 0,-4.43 -0.15,-6.63 A 104.36,104.36 0 0 0 250,81.823973 a 102.38,102.38 0 0 1 -29.46,8.06999 51.47,51.47 0 0 0 22.55,-28.36999 102.79,102.79 0 0 1 -32.57,12.45 A 51.34,51.34 0 0 0 123.11,120.75398 145.62,145.62 0 0 1 17.4,67.163973 51.33,51.33 0 0 0 33.28,135.63398 50.91,50.91 0 0 1 10,129.21398 c 0,0.21 0,0.43 0,0.65 a 51.31,51.31 0 0 0 41.15,50.28 51.21,51.21 0 0 1 -23.16,0.88 51.35,51.35 0 0 0 47.919997,35.62 102.92,102.92 0 0 1 -63.699997,22 104.41,104.41 0 0 1 -12.21,-0.74 145.21,145.21 0 0 0 78.619997,23"
     class="cls-2" />
</svg>
